<svg width="24" height="24" viewBox="0 0 24 24" fill="none" xmlns="http://www.w3.org/2000/svg">
<g opacity="0.7">
<path d="M12 19H7C5.9 19 5 18.1 5 17V7C5 5.9 5.9 5 7 5H12C12.55 5 13 4.55 13 4C13 3.45 12.55 3 12 3H7C4.79 3 3 4.79 3 7V17C3 19.21 4.79 21 7 21H12C12.55 21 13 20.55 13 20C13 19.45 12.55 19 12 19Z" fill="#1B3349"/>
<path d="M20.71 11.292L17.71 8.29202C17.6174 8.19944 17.5075 8.126 17.3865 8.07589C17.2656 8.02579 17.1359 8 17.005 8C16.8741 8 16.7444 8.02579 16.6235 8.07589C16.5025 8.126 16.3926 8.19944 16.3 8.29202C16.2074 8.3846 16.134 8.49451 16.0839 8.61548C16.0338 8.73644 16.008 8.86609 16.008 8.99702C16.008 9.12795 16.0338 9.2576 16.0839 9.37856C16.134 9.49953 16.2074 9.60944 16.3 9.70202L17.59 10.992H9C8.45 10.992 8 11.442 8 11.992C8 12.542 8.45 12.992 9 12.992H17.59L16.3 14.282C16.1605 14.4217 16.0656 14.5996 16.0274 14.7933C15.9892 14.987 16.0094 15.1877 16.0855 15.3699C16.1616 15.5521 16.2901 15.7075 16.4547 15.8165C16.6193 15.9255 16.8126 15.9831 17.01 15.982C17.27 15.982 17.52 15.882 17.72 15.692L20.72 12.692C20.8127 12.5995 20.8863 12.4896 20.9364 12.3686C20.9866 12.2477 21.0124 12.118 21.0124 11.987C21.0124 11.8561 20.9866 11.7264 20.9364 11.6054C20.8863 11.4844 20.8127 11.3745 20.72 11.282L20.71 11.292Z" fill="#1B3349"/>
</g>
</svg>
