<svg width="24" height="24" viewBox="0 0 24 24" fill="none" xmlns="http://www.w3.org/2000/svg">
<path d="M9 14H15C17.7558 14 20 16.2442 20 19C19.9995 19.5303 19.789 20.0391 19.4141 20.4141C19.039 20.7892 18.5295 20.9996 17.999 21H6.00098C5.47052 20.9996 4.96103 20.7892 4.58594 20.4141C4.21097 20.0391 4.00053 19.5303 4 19C4 16.2442 6.24421 14 9 14ZM12 3C14.2048 3 16 4.79521 16 7C16 9.20479 14.2048 11 12 11C9.79521 11 8 9.20479 8 7C8 4.79521 9.79521 3 12 3Z" stroke="#1B3349" stroke-width="1.5"/>
</svg>
